<mxfile host="app.diagrams.net" modified="2024-11-03T14:43:57.270Z" agent="Mozilla/5.0 (Macintosh; Intel Mac OS X 10_15_7) AppleWebKit/537.36 (KHTML, like Gecko) Chrome/129.0.0.0 Safari/537.36" version="24.2.2" etag="Xb5Tb0lppgxXhHbTTFTa" type="github">
  <diagram name="第 1 页" id="DqAuJEAkPbMgBLOHVG0x">
    <mxGraphModel>
      <root>
        <mxCell id="0" />
        <mxCell id="1" parent="0" />
      </root>
    </mxGraphModel>
  </diagram>
</mxfile>
